<?xml version="1.0" encoding="UTF-8"?>
<svg width="36px" height="36px" viewBox="0 0 36 36" version="1.1" xmlns="http://www.w3.org/2000/svg" xmlns:xlink="http://www.w3.org/1999/xlink">
    <!-- Generator: Sketch 52.6 (67491) - http://www.bohemiancoding.com/sketch -->
    <title>noun_Community_2272042 Copy 4</title>
    <desc>Created with Sketch.</desc>
    <g id="Template---iMessage-App-Icons" stroke="none" stroke-width="1" fill="none" fill-rule="evenodd">
        <g id="Artboard" transform="translate(-7.000000, -171.000000)" fill-rule="nonzero">
            <g id="noun_Community_2272042-Copy-4" transform="translate(7.000000, 171.000000)">
                <g id="Group-Copy-2">
                    <circle id="Oval" fill="#FFFFFF" cx="18" cy="2.30625" r="2.30625"></circle>
                    <circle id="Oval" fill="#FFFFFF" cx="18" cy="33.69375" r="2.30625"></circle>
                    <circle id="Oval" fill="#FFFFFF" cx="29.08125" cy="6.91875" r="2.30625"></circle>
                    <circle id="Oval" fill="#FFFFFF" cx="6.91875" cy="29.08125" r="2.30625"></circle>
                    <circle id="Oval" fill="#FFFFFF" cx="33.69375" cy="18" r="2.30625"></circle>
                    <circle id="Oval" fill="#FFFFFF" cx="2.30625" cy="18" r="2.30625"></circle>
                    <circle id="Oval" fill="#FFFFFF" cx="29.08125" cy="29.08125" r="2.30625"></circle>
                    <path d="M25.65,28.74375 C25.70625,28.0125 26.04375,27.225 26.6625,26.6625 C27.225,26.1 27.95625,25.7625 28.74375,25.65 C29.19375,24.80625 29.41875,23.85 29.41875,22.95 C26.4375,23.23125 20.7,19.85625 18.05625,18.05625 C21.20625,18.61875 27.675,20.30625 29.5875,22.6125 C30.20625,21.9375 30.7125,21.09375 31.05,20.19375 C30.54375,19.63125 30.2625,18.84375 30.2625,18.05625 C30.2625,17.2125 30.54375,16.48125 31.05,15.8625 C30.76875,14.9625 30.2625,14.11875 29.5875,13.44375 C27.675,15.75 21.20625,17.38125 18.05625,18 C20.7,16.2 26.4375,12.76875 29.41875,13.10625 C29.3625,12.15 29.1375,11.25 28.74375,10.40625 C27.95625,10.35 27.225,9.95625 26.6625,9.39375 C26.1,8.83125 25.7625,8.1 25.65,7.3125 C24.80625,6.8625 23.85,6.6375 22.89375,6.58125 C23.175,9.5625 19.8,15.3 18,17.94375 C18.61875,14.79375 20.25,8.325 22.55625,6.4125 C21.88125,5.79375 21.0375,5.2875 20.1375,5.00625 C19.575,5.5125 18.7875,5.79375 18,5.79375 C17.15625,5.79375 16.425,5.5125 15.8625,5.00625 C14.9625,5.2875 14.11875,5.79375 13.44375,6.4125 C15.75,8.26875 17.38125,14.7375 18,17.8875 C16.2,15.24375 12.76875,9.50625 13.10625,6.525 C12.15,6.58125 11.25,6.80625 10.40625,7.25625 C10.35,7.9875 10.0125,8.775 9.39375,9.3375 C8.83125,9.9 8.1,10.2375 7.3125,10.35 C6.8625,11.19375 6.6375,12.15 6.6375,13.05 C9.61875,12.76875 15.35625,16.14375 18,17.94375 C14.85,17.325 8.38125,15.69375 6.46875,13.3875 C5.85,14.0625 5.34375,14.90625 5.0625,15.80625 C5.5125,16.36875 5.85,17.15625 5.85,17.94375 C5.85,18.7875 5.56875,19.51875 5.0625,20.08125 C5.34375,20.98125 5.85,21.825 6.46875,22.5 C8.38125,20.19375 14.85,18.50625 18,17.94375 C15.35625,19.74375 9.61875,23.175 6.6375,22.8375 C6.69375,23.79375 6.91875,24.69375 7.3125,25.5375 C8.1,25.59375 8.83125,25.9875 9.39375,26.55 C9.95625,27.1125 10.29375,27.84375 10.40625,28.63125 C11.25,29.08125 12.20625,29.30625 13.10625,29.3625 C12.825,26.38125 16.2,20.64375 18,18 C17.38125,21.15 15.75,27.61875 13.44375,29.53125 C14.11875,30.15 14.9625,30.65625 15.8625,30.9375 C16.425,30.43125 17.2125,30.15 18,30.15 C18.84375,30.15 19.575,30.43125 20.1375,30.9375 C21.0375,30.65625 21.88125,30.15 22.55625,29.53125 C20.25,27.61875 18.61875,21.20625 18,18 C19.8,20.64375 23.23125,26.38125 22.89375,29.3625 C23.90625,29.41875 24.80625,29.1375 25.65,28.74375 Z" id="Path" fill="#FCA453"></path>
                    <circle id="Oval" fill="#FFFFFF" cx="6.91875" cy="6.91875" r="2.30625"></circle>
                </g>
            </g>
        </g>
    </g>
</svg>